<?xml version="1.0" encoding="utf-8"?>
<!-- Generator: Adobe Illustrator 21.1.0, SVG Export Plug-In . SVG Version: 6.00 Build 0)  -->
<svg version="1.1" id="圖層_1" xmlns="http://www.w3.org/2000/svg" xmlns:xlink="http://www.w3.org/1999/xlink" x="0px" y="0px"
	 viewBox="0 0 300 150" style="enable-background:new 0 0 300 150;" xml:space="preserve">
<style type="text/css">
	.st0{fill:#F9F9F9;}
	.st1{fill:#AABEBE;}
	.st2{fill:#96633E;}
	.st3{fill:#AD7C52;}
	.st4{fill:#08601B;}
	.st5{fill:#14781E;}
	.st6{fill:#0B6D24;}
	.st7{fill:#0A8228;}
	.st8{fill:#0D7026;}
	.st9{fill:#0A8C28;}
	.st10{fill:#127E32;}
	.st11{fill:#149632;}
	.st12{fill:#FDE74C;}
	.st13{fill:#FDEB6C;}
	.st14{fill:#FDE95C;}
	.st15{fill:#CC4252;}
	.st16{fill:#C42D39;}
	.st17{fill:#D65B6C;}
	.st18{fill:#D8A555;}
	.st19{fill:#CC9A40;}
	.st20{fill:#C18B33;}
	.st21{fill:#A4CA4E;}
	.st22{fill:#9BC53D;}
	.st23{fill:#B6D471;}
	.st24{fill:#2EB7E6;}
	.st25{fill:#00A7E1;}
	.st26{fill:#5CC7EB;}
	.st27{fill:#999999;}
	.st28{fill:#BBBBBB;}
	.st29{fill:#888888;}
	.st30{fill:#D33538;}
	.st31{fill:#AC4241;}
	.st32{fill:#FF3C3C;}
	.st33{fill:#32FFFF;}
	.st34{fill:#00FAFF;}
	.st35{fill:#00C8CD;}
	.st36{fill:#FF9600;}
	.st37{fill:#FFC832;}
	.st38{fill:#CD6400;}
	.st39{fill:#806FBF;}
	.st40{fill:#735BB4;}
	.st41{fill:#5A47A0;}
	.st42{fill:#C832FF;}
	.st43{fill:#9600FF;}
	.st44{fill:#6400CD;}
	.st45{fill:#32FF32;}
	.st46{fill:#00FF00;}
	.st47{fill:#00CD00;}
	.st48{fill:#FFF766;}
	.st49{fill:#E2DC00;}
	.st50{fill:#FFFF00;}
	.st51{fill:#FF0000;}
	.st52{fill:#FF3232;}
	.st53{fill:#C80000;}
	.st54{fill:#F7504A;}
	.st55{fill:#F77B71;}
	.st56{fill:#FF5582;}
	.st57{fill:#FC3F7A;}
	.st58{fill:#FF698C;}
	.st59{fill:#FF8431;}
	.st60{fill:#FF934A;}
	.st61{fill:#FF4646;}
	.st62{fill:#FCFF6E;}
	.st63{fill:#FFA76C;}
	.st64{fill:#FF761A;}
	.st65{fill:#F7A471;}
	.st66{fill:#F7C298;}
	.st67{fill:#F9C8A7;}
	.st68{fill:#B27E39;}
	.st69{fill:#BF8E55;}
	.st70{fill:#333333;}
	.st71{fill:#F5F5F5;}
	.st72{fill:#EEEEEE;}
	.st73{fill:#E5E5E5;}
	.st74{fill:#69E259;}
	.st75{fill:#52D844;}
	.st76{fill:#44C632;}
	.st77{fill:#EAEA6C;}
	.st78{fill:#FFFDA4;}
	.st79{fill:#DBD858;}
	.st80{fill:#444444;}
	.st81{fill:#555555;}
	.st82{fill:#963232;}
	.st83{fill:#842323;}
	.st84{fill:#A54747;}
	.st85{fill:#5878E8;}
	.st86{fill:#6DA6F5;}
	.st87{fill:#FFFFC8;}
	.st88{fill:#4867DA;}
	.st89{fill:#5A6EE8;}
	.st90{fill:#3A84CE;}
	.st91{fill:#E89160;}
	.st92{fill:#FFCFAE;}
	.st93{fill:#00B3A4;}
	.st94{fill:#008298;}
	.st95{fill:#12C4AE;}
	.st96{fill:#E55151;}
	.st97{fill:#DD3A3A;}
	.st98{fill:#CE2929;}
	.st99{fill:#81B9FC;}
	.st100{fill:#FF2828;}
	.st101{fill:#744B1F;}
	.st102{fill:#593A12;}
	.st103{fill:#8B613B;}
	.st104{fill:#282828;}
	.st105{fill:#FFE650;}
	.st106{fill:#FF5050;}
	.st107{fill:#DD3722;}
	.st108{fill:#C9E2E0;}
	.st109{fill:#B2CECA;}
	.st110{fill:#BFD8D5;}
</style>
<polygon class="st0" points="292,101.5 250.2,77.4 259.5,72.1 215.5,46.7 171.6,72.1 172.3,72.5 167.3,75.4 125.4,51.3 84.1,75.1 
	73.5,69 71.1,70.3 44,54.7 0,80.1 44,105.4 46.3,104.1 57.2,110.4 37.5,121.7 81.5,147.1 125.4,121.7 121,119.2 145.7,104.9 
	159,112.6 157,113.8 200.9,139.2 235.1,119.4 248,126.9 "/>
<polygon class="st1" points="150,99.2 106,124.6 150,150 194,124.6 "/>
<polygon class="st1" points="254.2,37.1 182.7,78.6 226.6,104 298.2,62.5 "/>
<polygon class="st1" points="75.9,58.9 55.9,70.4 75.9,82 95.9,70.4 "/>
<polygon class="st1" points="38.6,101.5 18.6,113.1 38.6,124.6 58.6,113.1 "/>
<polygon class="st1" points="264.6,93.3 244.6,104.9 264.6,116.4 284.6,104.9 "/>
<g id="tree">
	<polyline class="st2" points="150,107.7 139.6,113.8 150,119.8 160.4,113.8 150,107.7 	"/>
	<polyline class="st3" points="144.8,116.8 144.8,128.9 150,131.9 150,119.8 144.8,116.8 	"/>
	<polygon class="st2" points="150,131.9 150,119.8 155.2,116.8 155.2,128.9 	"/>
	<polyline class="st4" points="150,61.2 114.4,99.3 150,119.8 185.6,99.3 150,61.2 	"/>
	<polygon class="st5" points="150,61.2 114.4,99.3 150,119.8 	"/>
	<polyline class="st6" points="150,45.7 118,80 150,98.5 182,80 150,45.7 	"/>
	<polygon class="st7" points="150,45.7 118,80 150,98.5 	"/>
	<polyline class="st8" points="150,30.2 121.5,60.7 150,77.1 178.5,60.7 150,30.2 	"/>
	<polygon class="st9" points="150,30.2 121.5,60.7 150,77.1 	"/>
	<polyline class="st10" points="150,14.7 125.1,41.4 150,55.8 174.9,41.4 150,14.7 	"/>
	<polygon class="st11" points="150,14.7 125.1,41.4 150,55.8 	"/>
	<g id="light">
		<polyline class="st12" points="150,11.8 145,8.9 145,14.7 150,17.6 150,11.8 145,8.9 		"/>
		<polyline class="st13" points="155,14.7 155,8.9 150,11.8 150,17.6 155,14.7 		"/>
		<polyline class="st14" points="150,5 146,7.3 150,9.7 154,7.3 150,5 		"/>
		<polygon class="st14" points="150,11.8 150,9.7 154,7.3 155,8.9 		"/>
		<polygon class="st13" points="150,9.7 150,11.8 145,8.9 146,7.3 		"/>
		<polygon class="st14" points="150,19.2 150,17.6 155,14.7 154,16.8 		"/>
		<polygon class="st13" points="150,17.6 150,19.2 146,16.8 145,14.7 		"/>
	</g>
	<g id="light-2">
		<polyline class="st15" points="157.6,24.5 154,26.5 157.6,28.6 161.1,26.5 157.6,24.5 		"/>
		<polyline class="st16" points="154,26.5 154,30.7 157.6,32.7 157.6,28.6 154,26.5 		"/>
		<polyline class="st17" points="161.1,30.7 161.1,26.5 157.6,28.6 157.6,32.7 161.1,30.7 		"/>
	</g>
	<g id="light-3">
		<polyline class="st15" points="123.6,91.1 127.2,93.2 123.6,95.2 120.1,93.2 123.6,91.1 		"/>
		<polyline class="st16" points="127.2,93.2 127.2,97.3 123.6,99.3 123.6,95.2 127.2,93.2 		"/>
		<polyline class="st17" points="120.1,97.3 120.1,93.2 123.6,95.2 123.6,99.3 120.1,97.3 		"/>
	</g>
	<g id="light-4">
		<polyline class="st15" points="171.6,74.4 168,76.4 171.6,78.5 175.1,76.4 171.6,74.4 		"/>
		<polyline class="st17" points="168,76.4 168,80.5 171.6,82.6 171.6,78.5 168,76.4 		"/>
		<polyline class="st16" points="175.1,80.5 175.1,76.4 171.6,78.5 171.6,82.6 175.1,80.5 		"/>
	</g>
	<g id="light-5">
		<polyline class="st18" points="182,93.2 178.5,95.2 182,97.3 185.6,95.2 182,93.2 		"/>
		<polyline class="st19" points="178.5,95.2 178.5,99.3 182,101.4 182,97.3 178.5,95.2 		"/>
		<polyline class="st20" points="185.6,99.3 185.6,95.2 182,97.3 182,101.4 185.6,99.3 		"/>
	</g>
	<g id="light-6">
		<polyline class="st18" points="168,51.7 164.5,53.7 168,55.8 171.6,53.7 168,51.7 		"/>
		<polyline class="st19" points="164.5,53.7 164.5,57.8 168,59.9 168,55.8 164.5,53.7 		"/>
		<polyline class="st20" points="171.6,57.8 171.6,53.7 168,55.8 168,59.9 171.6,57.8 		"/>
	</g>
	<g id="light-7">
		<polyline class="st18" points="139.6,29.9 143.1,32 139.6,34 136,32 139.6,29.9 		"/>
		<polyline class="st19" points="143.1,32 143.1,36.1 139.6,38.1 139.6,34 143.1,32 		"/>
		<polyline class="st20" points="136,36.1 136,32 139.6,34 139.6,38.1 136,36.1 		"/>
	</g>
	<g id="light-8">
		<polyline class="st18" points="142.4,82.3 146,84.3 142.4,86.4 138.9,84.3 142.4,82.3 		"/>
		<polyline class="st19" points="146,84.3 146,88.4 142.4,90.5 142.4,86.4 146,84.3 		"/>
		<polyline class="st20" points="138.9,88.4 138.9,84.3 142.4,86.4 142.4,90.5 138.9,88.4 		"/>
	</g>
	<g id="light-9">
		<polyline class="st21" points="155.8,41.6 152.2,43.6 155.8,45.7 159.3,43.6 155.8,41.6 		"/>
		<polyline class="st22" points="152.2,43.6 152.2,47.7 155.8,49.8 155.8,45.7 152.2,43.6 		"/>
		<polyline class="st23" points="159.3,47.7 159.3,43.6 155.8,45.7 155.8,49.8 159.3,47.7 		"/>
	</g>
	<g id="light-10">
		<polyline class="st21" points="162.9,88.3 159.3,90.4 162.9,92.4 166.5,90.4 162.9,88.3 		"/>
		<polyline class="st22" points="159.3,90.4 159.3,94.5 162.9,96.5 162.9,92.4 159.3,90.4 		"/>
		<polyline class="st23" points="166.5,94.5 166.5,90.4 162.9,92.4 162.9,96.5 166.5,94.5 		"/>
	</g>
	<g id="light-11">
		<polyline class="st21" points="131.5,70 135.1,72.1 131.5,74.1 127.9,72.1 131.5,70 		"/>
		<polyline class="st22" points="135.1,72.1 135.1,76.2 131.5,78.2 131.5,74.1 135.1,72.1 		"/>
		<polyline class="st23" points="127.9,76.2 127.9,72.1 131.5,74.1 131.5,78.2 127.9,76.2 		"/>
	</g>
	<g id="light-12">
		<polyline class="st24" points="135.8,49.5 132.2,51.6 135.8,53.7 139.3,51.6 135.8,49.5 		"/>
		<polyline class="st25" points="132.2,51.6 132.2,55.7 135.8,57.8 135.8,53.7 132.2,51.6 		"/>
		<polyline class="st26" points="139.3,55.7 139.3,51.6 135.8,53.7 135.8,57.8 139.3,55.7 		"/>
	</g>
	<g id="light-13">
		<polyline class="st24" points="154,66.7 150.5,68.7 154,70.8 157.6,68.7 154,66.7 		"/>
		<polyline class="st25" points="150.5,68.7 150.5,72.8 154,74.9 154,70.8 150.5,68.7 		"/>
		<polyline class="st26" points="157.6,72.8 157.6,68.7 154,70.8 154,74.9 157.6,72.8 		"/>
	</g>
	<g id="light-14">
		<polyline class="st24" points="146,101.9 142.4,103.9 146,106 149.5,103.9 146,101.9 		"/>
		<polyline class="st25" points="142.4,103.9 142.4,108 146,110.1 146,106 142.4,103.9 		"/>
		<polyline class="st26" points="149.5,108 149.5,103.9 146,106 146,110.1 149.5,108 		"/>
	</g>
</g>
<g id="sled">
	<polygon class="st27" points="276.8,62.6 228,90.8 228,93.5 285,60.6 285,57.9 	"/>
	<polygon class="st28" points="228,89.2 283.6,57 285,57.9 228,90.8 	"/>
	<polygon class="st27" points="237.2,74 237.2,85.4 236.1,86.1 236.1,74.7 	"/>
	<polygon class="st29" points="235,74 235,85.4 236.1,86.1 236.1,74.7 	"/>
	<polygon class="st27" points="269.8,55.2 269.8,66.6 268.7,67.3 268.7,55.9 	"/>
	<polygon class="st29" points="267.6,55.2 267.6,66.6 268.7,67.3 268.7,55.9 	"/>
	<polygon class="st29" points="225.3,88.3 225.3,91.1 228,93.5 228,83.5 	"/>
	<polygon class="st27" points="252.4,48.4 203.5,76.6 203.5,79.4 260.5,46.5 260.5,43.7 	"/>
	<polygon class="st28" points="203.5,75 259.2,42.9 260.5,43.7 203.5,76.6 	"/>
	<polygon class="st27" points="212.8,59.9 212.8,71.3 211.7,71.9 211.7,60.5 	"/>
	<polygon class="st29" points="210.6,59.9 210.6,71.3 211.7,71.9 211.7,60.5 	"/>
	<polygon class="st27" points="245.4,41.1 245.4,52.5 244.3,53.1 244.3,41.7 	"/>
	<polygon class="st29" points="243.2,41.1 243.2,52.5 244.3,53.1 244.3,41.7 	"/>
	<polygon class="st29" points="200.9,74.1 200.9,76.9 203.5,79.4 203.5,69.4 	"/>
	<polygon class="st30" points="252.4,13.5 260.5,18.3 260.5,27.7 252.4,41.8 219.8,60.5 203.5,51.1 228,37 236.1,23 	"/>
	<polygon class="st31" points="244.2,46.4 252.4,51.1 228,65.2 219.8,60.5 	"/>
	<polygon class="st31" points="260.5,46.5 244.3,37.1 244.2,46.4 252.4,51.1 	"/>
	<polygon class="st32" points="244.3,37.1 252.4,32.4 260.5,37.1 260.5,46.5 	"/>
	<polygon class="st31" points="276.8,27.8 260.5,18.4 252.4,32.4 268.7,41.8 	"/>
	<g id="gift-3">
		<polygon class="st33" points="255.3,17.9 244.3,24.3 255.3,30.7 266.3,24.3 		"/>
		<polygon class="st34" points="255.3,43.5 266.3,37.1 266.3,24.3 255.3,30.7 		"/>
		<polygon class="st35" points="244.3,37.1 244.3,24.3 255.3,30.7 255.3,43.5 		"/>
		<polygon class="st36" points="259.7,28.2 248.7,21.8 250.9,20.5 261.9,26.9 		"/>
		<polygon class="st37" points="261.9,21.8 250.9,28.2 248.7,26.9 259.7,20.5 		"/>
		<polygon class="st38" points="259.7,40.9 259.7,28.2 261.9,26.9 261.9,39.7 		"/>
		<polygon class="st36" points="250.9,28.2 250.9,40.9 248.7,39.7 248.7,26.9 		"/>
		<polygon class="st38" points="257.5,21.8 259.7,20.5 259.7,23.1 257.5,24.3 		"/>
		<polygon class="st36" points="255.3,20.5 255.3,23 257.5,24.3 257.5,21.8 		"/>
		<polygon class="st37" points="257.5,19.2 259.7,20.5 257.5,21.8 255.3,20.5 		"/>
		<polygon class="st38" points="253.1,24.3 255.3,23.1 255.3,25.6 253.1,26.9 		"/>
		<polygon class="st36" points="250.9,23.1 250.9,25.6 253.1,26.9 253.1,24.3 		"/>
		<polygon class="st37" points="253.1,21.8 255.3,23.1 253.1,24.3 250.9,23.1 		"/>
	</g>
	<g id="gift-4">
		<polygon class="st39" points="242.2,39.5 233.4,44.6 242.2,49.7 251,44.6 		"/>
		<polygon class="st40" points="242.2,59.9 251,54.8 251,44.6 242.2,49.7 		"/>
		<polygon class="st41" points="233.4,54.8 233.4,44.6 242.2,49.7 242.2,59.9 		"/>
	</g>
	<g id="gift-5">
		<polygon class="st42" points="242.2,39.5 233.4,44.6 242.2,49.7 251,44.6 		"/>
		<polygon class="st43" points="242.2,59.9 251,54.8 251,44.6 242.2,49.7 		"/>
		<polygon class="st44" points="233.4,54.8 233.4,44.6 242.2,49.7 242.2,59.9 		"/>
	</g>
	<g id="gift-6">
		<polygon class="st45" points="243.2,37.8 239.8,39.7 243.2,41.7 246.5,39.7 		"/>
		<polygon class="st46" points="243.2,44.4 246.5,42.5 246.5,39.7 243.2,41.7 		"/>
		<polygon class="st47" points="239.8,42.5 239.8,39.7 243.2,41.7 243.2,44.4 		"/>
	</g>
	<g id="gift-7">
		<polygon class="st48" points="234.3,50.2 240.9,54 234.3,57.9 227.7,54 		"/>
		<polygon class="st49" points="234.3,65.5 227.7,61.7 227.7,54 234.3,57.9 		"/>
		<polygon class="st50" points="240.9,61.7 240.9,54 234.3,57.9 234.3,65.5 		"/>
		<polygon class="st51" points="231.6,56.3 238.3,52.5 236.9,51.7 230.3,55.6 		"/>
		<polygon class="st52" points="230.3,52.5 236.9,56.3 238.3,55.6 231.6,51.7 		"/>
		<polygon class="st53" points="231.6,64 231.6,56.3 230.3,55.6 230.3,63.2 		"/>
		<polygon class="st51" points="236.9,56.3 236.9,64 238.3,63.2 238.3,55.6 		"/>
		<polygon class="st53" points="233,52.5 231.6,51.7 231.6,53.3 232.9,54 		"/>
		<polygon class="st51" points="234.3,51.7 234.3,53.3 232.9,54 233,52.5 		"/>
		<polygon class="st52" points="233,51 231.6,51.7 233,52.5 234.3,51.7 		"/>
		<polygon class="st53" points="235.6,54 234.3,53.3 234.3,54.8 235.6,55.6 		"/>
		<polygon class="st51" points="236.9,53.3 236.9,54.8 235.6,55.6 235.6,54 		"/>
		<polygon class="st52" points="235.6,52.5 234.3,53.3 235.6,54 236.9,53.3 		"/>
	</g>
	<polygon class="st30" points="276.8,27.7 281.8,35.7 276.8,55.9 236.1,79.4 228,65.2 252.4,51.1 260.5,37.1 	"/>
	<polygon class="st54" points="228,65.2 203.5,51.1 211.7,65.2 236.1,79.4 	"/>
	<path class="st55" d="M203.5,51.1l22.9,13.2l0,0l1.6,0.9l1.3-0.8l0,0l23.1-13.3l8.1-14.1l16.3-9.4l-1.4-0.8l0,0l-21.7-12.5l0,0
		l-1.4-0.8l-1.3,0.8l0,0l-15,8.6L228,37l-23.1,13.3l0,0l-0.5,0.3L203.5,51.1L203.5,51.1L203.5,51.1z M227.7,63.6l-21.4-12.3
		l22.9-13.5l8.1-14.2l15.1-8.5l21.7,12.6l-14.8,8.7l-8.2,14L227.7,63.6z"/>
</g>
<g>
	<g id="girl">
		<g id="legs">
			<g id="leg">
				<polygon class="st56" points="76.6,49 73.8,50.6 73.8,63.4 76.6,61.8 				"/>
				<polygon class="st57" points="71.1,49 73.8,50.6 73.8,63.4 71.1,61.8 				"/>
				<polygon class="st56" points="79.4,63.4 79.4,66.6 76.6,68.2 76.6,65 				"/>
				<polygon class="st57" points="71.1,65 71.1,61.8 76.6,65 76.6,68.2 				"/>
				<polygon class="st58" points="76.6,61.8 79.4,63.4 76.6,65 73.8,63.4 				"/>
			</g>
			<g id="leg-2">
				<polygon class="st56" points="68.3,53.8 65.5,55.4 65.5,68.2 68.3,66.6 				"/>
				<polygon class="st57" points="62.8,53.8 65.5,55.4 65.5,68.2 62.8,66.6 				"/>
				<polygon class="st56" points="71.1,68.2 71.1,71.4 68.3,73 68.3,69.8 				"/>
				<polygon class="st57" points="62.8,69.8 62.8,66.6 68.3,69.8 68.3,73 				"/>
				<polygon class="st58" points="68.3,66.6 71.1,68.2 68.3,69.8 65.5,68.2 				"/>
			</g>
		</g>
		<g id="body">
			<polygon class="st59" points="57.6,56.6 57.6,42.5 69.8,49.6 69.8,63.7 			"/>
			<polygon class="st60" points="82.1,56.6 82.1,42.5 69.8,49.6 69.8,63.7 			"/>
			<polygon class="st61" points="73.5,55.6 73.5,47.4 69.8,49.6 69.8,57.7 			"/>
			<polygon class="st52" points="57.6,44.7 57.6,42.5 69.8,49.6 69.8,51.7 			"/>
			<polygon class="st61" points="82.1,44.7 82.1,42.5 69.8,49.6 69.8,51.7 			"/>
			<polygon class="st62" points="77.3,49.3 77.3,50.8 76,51.6 76,50.1 			"/>
			<polygon class="st62" points="77.3,52.3 77.3,53.9 76,54.6 76,53.1 			"/>
			<polygon class="st62" points="77.3,55.4 77.3,56.9 76,57.6 76,56.1 			"/>
		</g>
		<g id="hand">
			<polygon class="st63" points="62.5,51.4 59.7,49.8 62.5,48.1 65.4,49.8 			"/>
			<polygon class="st64" points="62.5,54.8 59.7,53.1 59.7,49.8 62.5,51.4 			"/>
			<polygon class="st65" points="65.4,56.4 62.5,54.8 62.5,51.4 65.4,53.1 			"/>
			<polygon class="st66" points="68.3,54.8 68.3,51.4 65.4,53.1 65.4,56.4 			"/>
			<polygon class="st67" points="65.4,49.8 68.3,51.4 65.4,53.1 62.5,51.4 			"/>
		</g>
		<g id="head">
			<polygon class="st68" points="57.6,42.5 57.6,28.3 69.8,35.4 69.8,49.6 			"/>
			<polygon class="st69" points="82.1,42.5 69.8,49.6 69.8,35.4 82.1,28.3 			"/>
			<polygon class="st66" points="81.1,43.1 71.1,48.8 71.1,37.6 81.1,31.9 			"/>
			<g id="eyes">
				<polygon class="st70" points="79.8,35.7 79.8,38.3 77.6,39.6 77.6,37 				"/>
				<polygon class="st70" points="75.4,38.3 75.4,40.9 73.1,42.1 73.1,39.6 				"/>
			</g>
		</g>
		<g id="hat">
			<polygon class="st61" points="69.8,17.1 82.1,28.3 69.8,35.4 			"/>
			<polygon class="st52" points="69.8,17.1 69.8,35.4 57.6,28.3 			"/>
			<polygon class="st71" points="69.8,13 73.4,15 69.8,17.1 66.2,15 			"/>
			<polygon class="st72" points="69.8,21.3 73.4,19.2 73.4,15 69.8,17.1 			"/>
			<polygon class="st73" points="66.2,19.2 66.2,15 69.8,17.1 69.8,21.3 			"/>
		</g>
	</g>
	<g id="gift">
		<polygon class="st74" points="82.6,47.2 94.6,54.1 82.6,61.1 70.6,54.1 		"/>
		<polygon class="st75" points="82.6,69.5 70.6,62.6 70.6,54.1 82.6,61.1 		"/>
		<polygon class="st76" points="94.6,62.6 94.6,54.1 82.6,61.1 82.6,69.5 		"/>
		<polygon class="st77" points="77.8,58.3 89.8,51.3 87.4,49.9 75.4,56.9 		"/>
		<polygon class="st78" points="75.4,51.3 87.4,58.3 89.8,56.9 77.8,50 		"/>
		<polygon class="st79" points="77.8,66.8 77.8,58.3 75.4,56.9 75.4,65.4 		"/>
		<polygon class="st77" points="87.4,58.3 87.4,66.8 89.8,65.4 89.8,56.9 		"/>
		<polygon class="st77" points="80.2,51.3 77.8,50 77.8,52.7 80.2,54.1 		"/>
		<polygon class="st79" points="82.6,50 82.6,52.7 80.2,54.1 80.2,51.3 		"/>
		<polygon class="st78" points="80.2,48.6 77.8,50 80.2,51.3 82.6,50 		"/>
		<polygon class="st77" points="85,54.1 82.6,52.7 82.6,55.5 85,56.9 		"/>
		<polygon class="st79" points="87.4,52.7 87.4,55.5 85,56.9 85,54.1 		"/>
		<polygon class="st78" points="85,51.4 82.6,52.7 85,54.1 87.4,52.7 		"/>
	</g>
</g>
<g>
	<g id="boy">
		<g id="legs-2">
			<g id="leg-3">
				<polygon class="st80" points="33.4,107.2 30.4,108.9 30.4,113.1 33.4,111.3 				"/>
				<polygon class="st70" points="27.4,107.2 30.4,108.9 30.4,113.1 27.4,111.3 				"/>
				<polygon class="st80" points="36.3,113 36.3,116.5 33.4,118.2 33.4,114.7 				"/>
				<polygon class="st70" points="27.4,114.7 27.4,111.3 33.4,114.7 33.4,118.2 				"/>
				<polygon class="st81" points="33.4,111.3 36.3,113 33.4,114.7 30.4,113.1 				"/>
				<polygon class="st81" points="30.4,105.5 33.4,107.2 30.4,108.9 27.4,107.2 				"/>
				<polygon class="st82" points="32.2,104.5 30.4,105.6 30.4,108.1 32.2,107 				"/>
				<polygon class="st83" points="28.6,104.5 30.4,105.6 30.4,108.1 28.6,107 				"/>
				<polygon class="st84" points="30.4,103.5 32.2,104.5 30.4,105.6 28.6,104.5 				"/>
			</g>
			<g id="leg-4">
				<polygon class="st80" points="42.3,102.1 39.3,103.8 39.3,107.9 42.3,106.2 				"/>
				<polygon class="st70" points="36.3,102.1 39.3,103.8 39.3,107.9 36.3,106.2 				"/>
				<polygon class="st80" points="45.2,107.9 45.2,111.3 42.3,113 42.3,109.6 				"/>
				<polygon class="st70" points="36.3,109.6 36.3,106.2 42.3,109.6 42.3,113 				"/>
				<polygon class="st81" points="42.3,106.2 45.2,107.9 42.3,109.6 39.3,107.9 				"/>
				<polygon class="st81" points="39.3,100.4 42.3,102.1 39.3,103.8 36.3,102.1 				"/>
				<polygon class="st82" points="41.1,99.4 39.3,100.4 39.3,102.9 41.1,101.9 				"/>
				<polygon class="st83" points="37.5,99.4 39.3,100.4 39.3,102.9 37.5,101.9 				"/>
				<polygon class="st84" points="39.3,98.3 41.1,99.4 39.3,100.4 37.5,99.4 				"/>
			</g>
		</g>
		<g id="body-2">
			<polygon class="st85" points="21.8,100.6 21.8,85.4 35,93 35,108.2 			"/>
			<polygon class="st86" points="48.1,100.6 48.1,85.4 35,93 35,108.2 			"/>
			<polygon class="st87" points="42.1,104.1 42.1,91.8 41,92.4 41,104.7 			"/>
			<polygon class="st88" points="21.8,88.3 21.8,85.4 35,93 35,95.9 			"/>
			<polygon class="st89" points="48.1,88.3 48.1,85.4 35,93 35,95.9 			"/>
			<polygon class="st85" points="39.3,100.9 39.3,102.6 36.4,104.2 36.4,102.6 			"/>
			<polygon class="st85" points="46.7,96.6 46.7,98.3 43.8,99.9 43.8,98.3 			"/>
			<circle class="st87" cx="41.6" cy="90.9" r="0.5"/>
		</g>
		<g id="hand-2">
			<polygon class="st86" points="27.2,95 24.1,93.3 27.2,91.5 30.3,93.3 			"/>
			<polygon class="st90" points="27.2,98.6 24.1,96.8 24.1,93.3 27.2,95 			"/>
			<polygon class="st65" points="30.3,100.4 27.2,98.6 27.2,95 30.3,96.8 			"/>
			<polygon class="st66" points="33.4,98.6 33.4,95.1 30.3,96.8 30.3,100.4 			"/>
			<polygon class="st67" points="30.3,93.3 33.4,95.1 30.3,96.8 27.2,95 			"/>
		</g>
		<g id="head-2">
			<polygon class="st65" points="21.8,85.4 21.8,70.2 35,77.8 35,93 			"/>
			<polygon class="st66" points="48.1,85.4 35,93 35,77.8 48.1,70.2 			"/>
			<g id="ear">
				<polygon class="st66" points="27.2,82.1 27.2,85.7 28.7,84.8 28.7,81.2 				"/>
				<polygon class="st91" points="25.6,81.2 27.2,82.1 27.2,85.7 25.6,84.8 				"/>
				<polygon class="st92" points="27.2,80.3 28.7,81.2 27.2,82.1 25.6,81.2 				"/>
			</g>
			<g id="eyes-2">
				<polygon class="st70" points="45.7,78.2 45.7,80.9 43.3,82.3 43.3,79.6 				"/>
				<polygon class="st70" points="40.9,80.9 40.9,83.7 38.6,85.1 38.6,82.3 				"/>
			</g>
		</g>
		<g id="hat-2">
			<polygon class="st93" points="35,82.3 35,78.6 49.3,70.4 49.3,74 			"/>
			<polygon class="st94" points="20.7,74 20.7,70.4 35,78.6 35,82.3 			"/>
			<polygon class="st95" points="35,78.6 20.7,70.4 35,62.1 49.3,70.4 			"/>
			<polygon class="st93" points="35,58.2 48.1,70.2 35,77.8 			"/>
			<polygon class="st94" points="35,58.2 35,77.8 21.8,70.2 			"/>
		</g>
	</g>
	<g id="gift-2">
		<polygon class="st96" points="50,90.2 62,97.1 50,104.1 38,97.1 		"/>
		<polygon class="st97" points="50,112.5 38,105.6 38,97.1 50,104.1 		"/>
		<polygon class="st98" points="62,105.6 62,97.1 50,104 50,112.5 		"/>
		<polygon class="st86" points="45.2,101.3 57.3,94.3 54.8,92.9 42.8,99.9 		"/>
		<polygon class="st99" points="42.8,94.3 54.8,101.3 57.2,99.9 45.2,93 		"/>
		<polygon class="st85" points="45.2,109.7 45.2,101.3 42.8,99.9 42.8,108.4 		"/>
		<polygon class="st86" points="54.8,101.3 54.8,109.8 57.2,108.4 57.2,99.9 		"/>
		<polygon class="st86" points="47.6,94.3 45.2,93 45.2,95.7 47.6,97.1 		"/>
		<polygon class="st85" points="50,93 50,95.7 47.6,97.1 47.6,94.3 		"/>
		<polygon class="st99" points="47.6,91.6 45.2,93 47.6,94.3 50,93 		"/>
		<polygon class="st86" points="52.4,97.1 50,95.7 50,98.5 52.4,99.9 		"/>
		<polygon class="st85" points="54.8,95.7 54.8,98.5 52.4,99.9 52.4,97.1 		"/>
		<polygon class="st99" points="52.4,94.3 50,95.7 52.4,97.1 54.8,95.7 		"/>
	</g>
</g>
<g id="santa">
	<g id="legs-3">
		<g id="leg-5">
			<polygon class="st32" points="257.5,87.3 260.3,88.9 260.3,101.7 257.5,100.1 			"/>
			<polygon class="st100" points="263.1,87.3 260.3,88.9 260.3,101.7 263.1,100.1 			"/>
			<polygon class="st72" points="257.5,99.3 260.3,100.9 260.3,101.7 257.5,100.1 			"/>
			<polygon class="st73" points="263.1,99.3 260.3,100.9 260.3,101.7 263.1,100.1 			"/>
			<polygon class="st101" points="254.8,101.7 254.8,104.9 257.6,106.5 257.5,103.3 			"/>
			<polygon class="st102" points="263.1,103.3 263.1,100.1 257.5,103.3 257.6,106.5 			"/>
			<polygon class="st103" points="257.5,100.1 254.8,101.7 257.5,103.3 260.3,101.7 			"/>
		</g>
		<g id="leg-6">
			<polygon class="st32" points="265.8,92.1 268.6,93.7 268.6,106.5 265.8,104.9 			"/>
			<polygon class="st100" points="271.4,92.1 268.6,93.7 268.6,106.5 271.4,104.9 			"/>
			<polygon class="st72" points="265.8,104.1 268.6,105.7 268.6,106.5 265.8,104.9 			"/>
			<polygon class="st73" points="271.4,104.1 268.6,105.7 268.6,106.5 271.4,104.9 			"/>
			<polygon class="st101" points="263.1,106.5 263.1,109.7 265.9,111.3 265.8,108.1 			"/>
			<polygon class="st102" points="271.4,108.1 271.4,104.9 265.8,108.1 265.9,111.3 			"/>
			<polygon class="st103" points="265.8,104.9 263.1,106.5 265.8,108.1 268.6,106.5 			"/>
		</g>
	</g>
	<g id="body-3">
		<polygon class="st52" points="276.6,94.9 276.6,80.8 264.3,87.9 264.3,102 		"/>
		<polygon class="st61" points="252.1,94.9 252.1,80.8 264.3,87.9 264.3,102 		"/>
		<polygon class="st104" points="264.3,96.8 276.6,89.7 276.6,91.9 264.3,99 		"/>
		<polygon class="st70" points="252.1,89.7 252.1,91.9 264.3,99 264.3,96.8 		"/>
		<path class="st105" d="M255.2,92l4.7,2.7v1l-4.7-2.7V92 M254.6,90.9v2.5l6,3.5v-2.5C260.5,94.3,254.6,90.9,254.6,90.9z"/>
	</g>
	<g id="hand-3">
		<polygon class="st106" points="271.6,89.7 274.5,88.1 271.6,86.4 268.7,88.1 		"/>
		<polygon class="st100" points="271.6,93 274.5,91.4 274.5,88.1 271.6,89.7 		"/>
		<polygon class="st32" points="268.7,91.4 268.7,88 271.6,89.7 271.6,93 		"/>
		<polygon class="st65" points="271.6,96.4 274.5,94.7 274.5,91.4 271.6,93 		"/>
		<polygon class="st66" points="268.7,94.7 268.7,91.4 271.6,93 271.6,96.4 		"/>
	</g>
	<g id="head-3">
		<polygon class="st65" points="276.6,80.8 276.6,66.6 264.3,73.7 264.3,87.9 		"/>
		<polygon class="st66" points="252.1,80.8 264.3,87.9 264.3,73.7 252.1,66.6 		"/>
		<g id="ear-2">
			<polygon class="st66" points="271.6,77.7 271.6,81 270.2,80.2 270.2,76.9 			"/>
			<polygon class="st91" points="273,76.9 271.6,77.7 271.6,81 273,80.2 			"/>
			<polygon class="st92" points="271.6,76 270.2,76.9 271.6,77.7 273,76.9 			"/>
		</g>
		<g id="mouth">
			<polygon class="st72" points="252.7,78.6 252.7,88.4 261.2,93.3 261.2,83.5 			"/>
			<polygon class="st107" points="255.5,80.6 255.5,82.2 258.4,83.9 258.4,82.2 			"/>
			<polygon class="st73" points="262.7,82.6 262.7,92.5 261.2,93.3 261.2,83.5 			"/>
			<polygon class="st71" points="254.2,77.7 252.7,78.6 261.2,83.5 262.7,82.6 			"/>
		</g>
		<g id="eyes-3">
			<polygon class="st70" points="254.4,74 254.4,76.6 256.6,77.9 256.6,75.3 			"/>
			<polygon class="st70" points="258.8,76.6 258.8,79.2 261,80.4 261,77.9 			"/>
		</g>
	</g>
	<g id="hat-3">
		<polygon class="st71" points="264.3,74.4 277.6,66.8 264.3,59.1 251,66.8 		"/>
		<polygon class="st72" points="264.3,77.8 264.3,74.4 251,66.8 251,70.2 		"/>
		<polygon class="st73" points="277.6,70.2 277.6,66.8 264.3,74.4 264.3,77.8 		"/>
		<polygon class="st61" points="264.3,55.4 252.1,66.6 264.3,73.7 		"/>
		<polygon class="st52" points="264.3,55.4 264.3,73.7 276.6,66.6 		"/>
		<polygon class="st71" points="264.3,51.3 260.7,53.3 264.3,55.4 267.9,53.3 		"/>
		<polygon class="st72" points="264.3,59.6 260.7,57.5 260.7,53.3 264.3,55.4 		"/>
		<polygon class="st73" points="267.9,57.5 267.9,53.3 264.3,55.4 264.3,59.6 		"/>
	</g>
</g>
<g>
	<g>
		<polygon class="st108" points="95.5,85.2 90.2,88.3 95.5,91.3 100.8,88.3 		"/>
		<polygon class="st109" points="95.5,97.4 100.8,94.3 100.8,88.3 95.5,91.3 		"/>
		<polygon class="st110" points="90.2,94.3 90.2,88.3 95.5,91.3 95.5,97.4 		"/>
	</g>
	<g>
		<polygon class="st108" points="106,86.6 101.6,89.1 106,91.7 110.4,89.1 		"/>
		<polygon class="st109" points="106,96.8 110.4,94.2 110.4,89.1 106,91.7 		"/>
		<polygon class="st110" points="101.6,94.2 101.6,89.1 106,91.7 106,96.8 		"/>
	</g>
	<g>
		<polygon class="st108" points="101.2,92.3 98.2,94 101.2,95.7 104.1,94 		"/>
		<polygon class="st109" points="101.2,99.1 104.1,97.4 104.1,94 101.2,95.7 		"/>
		<polygon class="st110" points="98.2,97.4 98.2,94 101.2,95.7 101.2,99.1 		"/>
	</g>
	<g>
		<polygon class="st108" points="97.2,84.1 95.2,85.3 97.2,86.4 99.3,85.3 		"/>
		<polygon class="st109" points="97.2,88.8 99.3,87.6 99.3,85.3 97.2,86.4 		"/>
		<polygon class="st110" points="95.2,87.6 95.2,85.3 97.2,86.4 97.2,88.8 		"/>
	</g>
</g>
</svg>
